<svg width="551" height="600" viewBox="0 0 551 600" fill="none" xmlns="http://www.w3.org/2000/svg">
<rect x="0.856934" width="550" height="600" rx="275" fill="white"/>
<path fill-rule="evenodd" clip-rule="evenodd" d="M500.857 300C500.857 438.071 400.121 550 275.857 550C151.593 550 50.8569 438.071 50.8569 300C50.8569 161.929 151.593 50 275.857 50C400.121 50 500.857 161.929 500.857 300ZM458.107 300C458.107 411.838 376.511 502.5 275.857 502.5C175.203 502.5 93.6069 411.838 93.6069 300C93.6069 188.162 175.203 97.5 275.857 97.5C376.511 97.5 458.107 188.162 458.107 300ZM283.127 206.254C280.815 199.02 270.579 199.02 268.267 206.254L247.601 270.934C246.761 273.565 244.591 275.556 241.897 276.167L170.382 292.393C162.283 294.231 162.283 305.769 170.382 307.607L241.897 323.833C244.591 324.444 246.761 326.435 247.601 329.066L268.267 393.746C270.579 400.98 280.815 400.98 283.127 393.746L303.793 329.066C304.633 326.435 306.803 324.444 309.497 323.833L381.012 307.607C389.111 305.769 389.111 294.231 381.012 292.393L309.497 276.167C306.803 275.556 304.633 273.565 303.793 270.934L283.127 206.254Z" fill="black"/>
</svg>
